<svg width="36" height="36" viewBox="0 0 36 36" fill="none" xmlns="http://www.w3.org/2000/svg">
<path d="M12.8112 15.3534V19.8596L8.88456 22.1158L4.95703 19.8596V15.3534L8.88456 13.0972L12.8112 15.3534Z" fill="#B4B4B4"/>
<path d="M31.0495 15.3534V19.8596L27.1228 22.1158L23.1953 19.8596V15.3534L27.1228 13.0972L31.0495 15.3534Z" fill="#B4B4B4"/>
<path d="M26.4948 7.49646V12.0027L22.5682 14.2589L18.6406 12.0027V7.49646L22.5682 5.24023L26.4948 7.49646Z" fill="#B4B4B4"/>
<path d="M21.9323 15.3514V19.8577L18.0057 22.1139L14.0781 19.8577V15.3514L18.0057 13.0952L21.9323 15.3514Z" fill="#B4B4B4"/>
<path d="M26.4948 23.2001V27.7063L22.5682 29.9625L18.6406 27.7063V23.2001L22.5682 20.9438L26.4948 23.2001Z" fill="#B4B4B4"/>
<path d="M17.3698 23.2001V27.7063L13.4432 29.9625L9.51562 27.7063V23.2001L13.4432 20.9438L17.3698 23.2001Z" fill="#B4B4B4"/>
<path d="M17.3737 7.49646V12.0027L13.4471 14.2589L9.51953 12.0027V7.49646L13.4471 5.24023L17.3737 7.49646Z" fill="#B4B4B4"/>
<path d="M22.7617 3.92507L18.0009 6.66119L13.2365 3.92507L8.47301 6.66208V12.1334H8.47034L3.70774 14.8695V20.3427L8.47123 23.0797V28.5403L13.2356 31.2773L18 28.5412L22.7635 31.2773L27.5279 28.5403V23.0788L32.2923 20.3427V14.8695L27.5279 12.1334V6.66208L22.7617 3.92507ZM29.2365 11.1451L34 13.8812V21.3319L29.2365 24.0671V29.5295L22.7635 33.2468L17.9991 30.5098L13.2356 33.2468L6.76349 29.5286V24.0671L2 21.331V13.8812L6.76528 11.1424V5.67376L13.2365 1.95557L18 4.69168L22.7617 1.95557L29.2365 5.67287V11.1451Z" fill="#B4B4B4"/>
</svg>
